<svg xmlns="http://www.w3.org/2000/svg" width="128" height="128" viewBox="0 0 128 128" role="img" aria-label="DramaStream logo">
  <rect width="128" height="128" rx="16" fill="#1f0520" />
  <rect x="8" y="8" width="112" height="112" rx="12" fill="#ff2d5c" />
  <rect x="22" y="28" width="84" height="72" rx="6" fill="#0b0b0b" />
  <!-- left perforations -->
  <g fill="#ff2d5c">
    <rect x="16" y="36" width="6" height="8" rx="2" />
    <rect x="16" y="52" width="6" height="8" rx="2" />
    <rect x="16" y="68" width="6" height="8" rx="2" />
  </g>
  <!-- right perforations -->
  <g fill="#ff2d5c">
    <rect x="106" y="36" width="6" height="8" rx="2" />
    <rect x="106" y="52" width="6" height="8" rx="2" />
    <rect x="106" y="68" width="6" height="8" rx="2" />
  </g>
  <!-- film holes top and bottom -->
  <g fill="#ff2d5c">
    <rect x="36" y="20" width="8" height="8" rx="2" />
    <rect x="56" y="20" width="8" height="8" rx="2" />
    <rect x="76" y="20" width="8" height="8" rx="2" />
    <rect x="36" y="100" width="8" height="8" rx="2" />
    <rect x="56" y="100" width="8" height="8" rx="2" />
    <rect x="76" y="100" width="8" height="8" rx="2" />
  </g>
  <!-- center play/film symbol -->
  <g fill="#ff2d5c">
    <rect x="44" y="44" width="40" height="40" rx="4" opacity="0.0" />
    <path d="M52 48 L52 80 L84 64 Z" fill="#ff2d5c" opacity="0.95"/>
  </g>
</svg>
